<svg xmlns="http://www.w3.org/2000/svg" viewBox="0 0 64 64" width="64" height="64">
  <!-- Left leg -->
  <path d="M24 16 L22 22 Q20 35 18 50 Q22 52 28 52 Q30 35 32 20 Z" fill="#696969" stroke="#404040" stroke-width="0.8"/>
  <!-- Right leg -->
  <path d="M40 16 L42 22 Q44 35 46 50 Q42 52 36 52 Q34 35 32 20 Z" fill="#696969" stroke="#404040" stroke-width="0.8"/>
  <!-- Waist -->
  <ellipse cx="32" cy="18" rx="8" ry="4" fill="#404040"/>
  <!-- Copper fastened seams -->
  <circle cx="22" cy="28" r="1.2" fill="#B87333" opacity="0.8"/>
  <circle cx="22" cy="36" r="1.2" fill="#B87333" opacity="0.8"/>
  <circle cx="22" cy="44" r="1.2" fill="#B87333" opacity="0.8"/>
  <circle cx="42" cy="28" r="1.2" fill="#B87333" opacity="0.8"/>
  <circle cx="42" cy="36" r="1.2" fill="#B87333" opacity="0.8"/>
  <circle cx="42" cy="44" r="1.2" fill="#B87333" opacity="0.8"/>
  <!-- Tool pockets -->
  <rect x="24" y="30" width="3" height="5" fill="none" stroke="#B87333" stroke-width="0.5"/>
  <rect x="37" y="30" width="3" height="5" fill="none" stroke="#B87333" stroke-width="0.5"/>
</svg>
