<svg width="1600" height="900" viewBox="0 0 1600 900" fill="none" xmlns="http://www.w3.org/2000/svg">
  <rect width="1600" height="900" rx="40" fill="#07101D"/>
  <rect width="1600" height="900" rx="40" fill="url(#paint0_radial)"/>
  <rect width="1600" height="900" rx="40" fill="url(#paint1_radial)"/>
  <rect x="90" y="86" width="1420" height="728" rx="28" fill="url(#paint2_linear)" stroke="#2A3A52" stroke-opacity="0.7"/>
  <rect x="146" y="144" width="542" height="124" rx="22" fill="#101B2D" stroke="#243041"/>
  <rect x="146" y="298" width="1310" height="374" rx="26" fill="#0D1728" stroke="#243041"/>
  <rect x="760" y="144" width="454" height="462" rx="26" fill="#111E34" stroke="#31415B"/>
  <rect x="1238" y="144" width="218" height="462" rx="26" fill="#101B2D" stroke="#31415B"/>
  <rect x="760" y="628" width="696" height="138" rx="24" fill="#0F1A2B" stroke="#31415B"/>
  <path d="M806 496L928 374L1012 458L1114 352L1320 558H806V496Z" fill="url(#paint3_linear)"/>
  <circle cx="952" cy="284" r="48" fill="#FFC145" fill-opacity="0.88"/>
  <text x="180" y="195" fill="#F5F7FF" font-family="Bahnschrift, Aptos, Segoe UI, sans-serif" font-size="44" font-weight="700">Future Game Layout</text>
  <text x="180" y="235" fill="#8FA5C7" font-family="Bahnschrift, Aptos, Segoe UI, sans-serif" font-size="22">Character panel, story panel, action panel, and extra info rail.</text>
  <text x="1272" y="182" fill="#F5F7FF" font-family="Bahnschrift, Aptos, Segoe UI, sans-serif" font-size="24" font-weight="700">Log</text>
  <text x="806" y="665" fill="#F5F7FF" font-family="Bahnschrift, Aptos, Segoe UI, sans-serif" font-size="28" font-weight="700">Action panel</text>
  <defs>
    <radialGradient id="paint0_radial" cx="0" cy="0" r="1" gradientUnits="userSpaceOnUse" gradientTransform="translate(260 120) rotate(43.8091) scale(502.851 570.211)">
      <stop stop-color="#FFC145" stop-opacity="0.3"/>
      <stop offset="1" stop-color="#FFC145" stop-opacity="0"/>
    </radialGradient>
    <radialGradient id="paint1_radial" cx="0" cy="0" r="1" gradientUnits="userSpaceOnUse" gradientTransform="translate(1258 208) rotate(116.962) scale(474.484 483.291)">
      <stop stop-color="#61D0FF" stop-opacity="0.28"/>
      <stop offset="1" stop-color="#61D0FF" stop-opacity="0"/>
    </radialGradient>
    <linearGradient id="paint2_linear" x1="800" y1="86" x2="800" y2="814" gradientUnits="userSpaceOnUse">
      <stop stop-color="#131F35"/>
      <stop offset="1" stop-color="#09111F"/>
    </linearGradient>
    <linearGradient id="paint3_linear" x1="1063" y1="352" x2="1063" y2="558" gradientUnits="userSpaceOnUse">
      <stop stop-color="#61D0FF"/>
      <stop offset="1" stop-color="#1D4B73"/>
    </linearGradient>
  </defs>
</svg>
